<svg class="svg-icon" style="width: 1em; height: 1em;vertical-align: middle;fill: currentColor;overflow: hidden;" viewBox="0 0 1024 1024" version="1.1" xmlns="http://www.w3.org/2000/svg"><path d="M607.146667 477.013333m-122.453334 0a122.453333 122.453333 0 1 0 244.906667 0 122.453333 122.453333 0 1 0-244.906667 0Z" fill="#00FFFF" /><path d="M533.333333 213.333333A476.16 476.16 0 0 0 85.333333 533.333333l2.56 6.826667a473.173333 473.173333 0 0 0 890.453334 0l2.986666-6.826667A476.16 476.16 0 0 0 533.333333 213.333333z m0 597.333334a433.066667 433.066667 0 0 1-401.92-277.333334 430.08 430.08 0 0 1 803.84 0A433.493333 433.493333 0 0 1 533.333333 810.666667z" fill="#0000FF" /><path d="M533.333333 384a149.333333 149.333333 0 1 0 149.333334 149.333333A149.333333 149.333333 0 0 0 533.333333 384z m0 256a106.666667 106.666667 0 1 1 106.666667-106.666667 106.666667 106.666667 0 0 1-106.666667 106.666667z" fill="#0000FF" /></svg>